# File created by Blade
# Date/Time:  Tue Apr 07 20:49:23 2015
# Frame Rate: 120.000 fps
#------------------------------------------------------
:FULLY-SPECIFIED
:DEGREES
763
root 0.768306 33.945135 -6.270231 -3.203701 50.066194 -112.551572
Spine -49.672339 -11.463048 34.764518
Head -12.714967 31.538632 35.479821
LeftShoulder -25.553079 37.791632 30.482235
LeftArm 79.601074 -70.078267 -73.042892
LeftForeArm 17.917449 -0.000000 15.843821
LeftHand 7.101405 0.000000 17.058291
LeftHandThumb1 -26.253704 0.000000 33.147579
RightShoulder -23.733687 -4.795706 -28.660205
RightArm -23.425804 37.344850 19.302852
RightForeArm 58.195290 -0.000000 -2.044609
RightHand 2.725333 -0.000000 13.616495
RightHandThumb1 -24.326973 -0.000000 -32.862282
LeftUpLeg -100.955256 42.318055 8.450037
LeftLeg -16.480974 -0.000000 0.000000
LeftFoot 8.997255 9.162056 -22.232802
LeftToeBase -5.341203 -0.000000 0.000000
RightUpLeg 33.934158 18.699676 -16.226634
RightLeg 57.384024 -0.000000 -0.000000
RightFoot 55.224876 10.580365 1.097761
RightToeBase 6.441286 -0.000000 -0.000000
764
root 0.774743 33.946823 -6.240688 -3.155938 49.952647 -112.586559
Spine -49.780314 -11.465676 34.720448
Head -12.502607 31.519626 35.680931
LeftShoulder -25.454342 37.749600 30.581503
LeftArm 79.207929 -70.030117 -72.747349
LeftForeArm 17.912167 0.000000 15.915134
LeftHand 7.038074 -0.000000 16.971681
LeftHandThumb1 -26.253704 0.000000 33.147579
RightShoulder -23.645283 -4.834380 -28.629655
RightArm -23.356426 37.238223 19.256527
RightForeArm 58.190600 -0.000000 -2.185020
RightHand 2.660978 -0.000000 13.624145
RightHandThumb1 -24.326973 -0.000000 -32.862282
LeftUpLeg -101.142389 42.395179 8.185110
LeftLeg -16.602215 -0.000000 0.000000
LeftFoot 9.187657 9.232871 -21.882240
LeftToeBase -5.553461 -0.000000 0.000000
RightUpLeg 33.994530 18.744582 -16.185144
RightLeg 57.274231 -0.000000 -0.000000
RightFoot 55.241194 10.585130 1.117384
RightToeBase 6.423678 -0.000000 -0.000000
765
root 0.781288 33.949810 -6.215201 -3.012429 49.825373 -112.526881
Spine -49.898247 -11.445667 34.611595
Head -12.277785 31.514548 35.909960
LeftShoulder -25.437565 37.815511 30.574411
LeftArm 79.165927 -69.979063 -72.714417
LeftForeArm 17.890603 -0.000000 15.912634
LeftHand 7.050064 -0.000000 16.974292
LeftHandThumb1 -26.253704 0.000000 33.147579
RightShoulder -23.576501 -4.917220 -28.586764
RightArm -23.188869 37.118989 19.288324
RightForeArm 58.284887 0.000000 -2.402810
RightHand 2.708154 -0.000000 13.648431
RightHandThumb1 -24.326973 -0.000000 -32.862282
LeftUpLeg -101.341257 42.476602 7.869998
LeftLeg -16.716247 -0.000000 0.000000
LeftFoot 9.391385 9.331756 -21.384890
LeftToeBase -5.945753 -0.000000 0.000000
RightUpLeg 33.999814 18.802077 -16.235919
RightLeg 57.215271 -0.000000 -0.000000
RightFoot 55.221792 10.553893 1.104156
RightToeBase 6.381185 -0.000000 -0.000000
766
root 0.782682 33.954251 -6.191102 -3.040974 49.679658 -112.592770
Spine -49.894392 -11.438042 34.573207
Head -12.163727 31.496034 36.046305
LeftShoulder -25.428525 37.847340 30.543780
LeftArm 79.180349 -69.931121 -72.752492
LeftForeArm 17.932878 -0.000000 15.932616
LeftHand 7.000260 0.000000 16.879505
LeftHandThumb1 -26.253704 0.000000 33.147579
RightShoulder -23.533706 -4.901445 -28.599049
RightArm -23.067107 36.972337 19.302380
RightForeArm 58.329323 -0.000000 -2.605258
RightHand 2.740366 -0.000000 13.726031
RightHandThumb1 -24.326973 -0.000000 -32.862282
LeftUpLeg -101.424079 42.569101 7.764138
LeftLeg -16.809881 -0.000000 0.000000
LeftFoot 9.582733 9.471842 -20.850062
LeftToeBase -6.173724 -0.000000 0.000000
RightUpLeg 34.071880 18.893364 -16.190595
RightLeg 57.175975 -0.000000 -0.000000
RightFoot 55.160179 10.577763 0.954482
RightToeBase 6.228404 -0.000000 -0.000000
767
root 0.783712 33.960147 -6.167168 -3.098892 49.522827 -112.685110
Spine -49.871970 -11.439096 34.575576
Head -12.042817 31.532649 36.171975
LeftShoulder -25.399735 37.825646 30.532090
LeftArm 79.071551 -69.888569 -72.715587
LeftForeArm 18.008370 0.000000 15.971990
LeftHand 7.008621 -0.000000 16.768883
LeftHandThumb1 -26.253704 0.000000 33.147579
RightShoulder -23.449516 -4.844952 -28.668766
RightArm -23.028690 36.815567 19.317066
RightForeArm 58.368539 -0.000000 -2.748539
RightHand 2.662448 -0.000000 13.810393
RightHandThumb1 -24.326973 -0.000000 -32.862282
LeftUpLeg -101.458140 42.681443 7.749046
LeftLeg -16.881273 -0.000000 0.000000
LeftFoot 9.746281 9.661599 -20.329694
LeftToeBase -6.437191 -0.000000 0.000000
RightUpLeg 34.141722 19.007081 -16.119343
RightLeg 57.160039 -0.000000 -0.000000
RightFoot 55.105138 10.498587 0.866456
RightToeBase 6.373833 -0.000000 -0.000000
768
root 0.785821 33.964322 -6.137862 -3.193492 49.344760 -112.792846
Spine -49.829885 -11.439143 34.581625
Head -11.909359 31.556029 36.312377
LeftShoulder -25.371256 37.842029 30.557810
LeftArm 78.952696 -69.800255 -72.718831
LeftForeArm 18.084704 -0.000000 16.013037
LeftHand 7.013523 -0.000000 16.780568
LeftHandThumb1 -26.253704 0.000000 33.147579
RightShoulder -23.378449 -4.828792 -28.720457
RightArm -22.991714 36.751925 19.324458
RightForeArm 58.284219 -0.000000 -2.842163
RightHand 2.741176 -0.000000 13.784649
RightHandThumb1 -24.326973 -0.000000 -32.862282
LeftUpLeg -101.512833 42.818657 7.695884
LeftLeg -16.921710 -0.000000 0.000000
LeftFoot 9.837753 9.764167 -19.965745
LeftToeBase -6.547572 -0.000000 0.000000
RightUpLeg 34.234778 19.140774 -16.023407
RightLeg 57.143138 -0.000000 -0.000000
RightFoot 55.060392 10.373772 0.750865
RightToeBase 6.477655 -0.000000 -0.000000
769
root 0.785696 33.969462 -6.109383 -3.331616 49.155602 -112.938702
Spine -49.743503 -11.431725 34.609409
Head -11.822934 31.627658 36.418635
LeftShoulder -25.398966 37.912367 30.478872
LeftArm 79.085188 -69.756155 -72.871643
LeftForeArm 18.149328 0.000000 15.974526
LeftHand 7.087718 -0.000000 16.740144
LeftHandThumb1 -26.253704 0.000000 33.147579
RightShoulder -23.329177 -4.808335 -28.802522
RightArm -22.993385 36.760468 19.339578
RightForeArm 58.162564 0.000000 -2.888909
RightHand 2.710323 -0.000000 13.844620
RightHandThumb1 -24.326973 -0.000000 -32.862282
LeftUpLeg -101.589107 42.969328 7.654031
LeftLeg -16.910338 -0.000000 0.000000
LeftFoot 9.897200 9.778771 -19.725012
LeftToeBase -6.724639 -0.000000 0.000000
RightUpLeg 34.316478 19.266456 -15.932496
RightLeg 57.142462 -0.000000 -0.000000
RightFoot 54.971425 10.335119 0.581939
RightToeBase 6.513578 -0.000000 -0.000000
770
root 0.787058 33.974979 -6.078635 -3.465073 48.972486 -113.076524
Spine -49.661553 -11.443345 34.629423
Head -11.762462 31.697682 36.538052
LeftShoulder -25.371671 37.872647 30.494467
LeftArm 79.005357 -69.686178 -72.879343
LeftForeArm 18.277463 -0.000000 15.962476
LeftHand 7.108262 -0.000000 16.685463
LeftHandThumb1 -26.253704 0.000000 33.147579
RightShoulder -23.272029 -4.784061 -28.874635
RightArm -23.044450 36.809316 19.333340
RightForeArm 57.997541 -0.000000 -2.899714
RightHand 2.671661 -0.000000 13.845147
RightHandThumb1 -24.326973 -0.000000 -32.862282
LeftUpLeg -101.642469 43.141130 7.640024
LeftLeg -16.888666 -0.000000 0.000000
LeftFoot 9.945959 9.771257 -19.546993
LeftToeBase -6.835271 -0.000000 0.000000
RightUpLeg 34.391318 19.376022 -15.846281
RightLeg 57.149816 -0.000000 -0.000000
RightFoot 54.956242 10.229157 0.515131
RightToeBase 6.555297 -0.000000 -0.000000
771
root 0.790106 33.979422 -6.051171 -3.513372 48.835408 -113.134947
Spine -49.624056 -11.471979 34.594782
Head -11.755263 31.737828 36.651213
LeftShoulder -25.416795 37.884649 30.445623
LeftArm 78.599517 -69.569533 -72.442651
LeftForeArm 18.181272 0.000000 15.870616
LeftHand 7.058988 -0.000000 16.767405
LeftHandThumb1 -26.253704 0.000000 33.147579
RightShoulder -23.237490 -4.754566 -28.945369
RightArm -23.087605 36.859776 19.353613
RightForeArm 57.909284 -0.000000 -2.913002
RightHand 2.694475 -0.000000 13.827741
RightHandThumb1 -24.326973 -0.000000 -32.862282
LeftUpLeg -101.709568 43.272338 7.550652
LeftLeg -16.900187 -0.000000 0.000000
LeftFoot 10.026685 9.741384 -19.383810
LeftToeBase -7.089774 -0.000000 0.000000
RightUpLeg 34.432810 19.420813 -15.840889
RightLeg 57.157026 -0.000000 -0.000000
RightFoot 54.951619 10.293141 0.428182
RightToeBase 6.492877 -0.000000 -0.000000
772
root 0.794655 33.983347 -6.021800 -3.523892 48.715079 -113.150210
Spine -49.608928 -11.516422 34.516717
Head -11.751066 31.775905 36.784777
LeftShoulder -25.426836 37.933837 30.394955
LeftArm 78.394565 -69.519089 -72.211692
LeftForeArm 18.155573 0.000000 15.810679
LeftHand 7.057187 -0.000000 16.751101
LeftHandThumb1 -26.253704 0.000000 33.147579
RightShoulder -23.221190 -4.799951 -28.949593
RightArm -23.064883 36.912470 19.436654
RightForeArm 57.887526 0.000000 -2.921878
RightHand 2.735245 -0.000000 13.746128
RightHandThumb1 -24.326973 -0.000000 -32.862282
LeftUpLeg -101.752477 43.407550 7.453018
LeftLeg -16.937760 -0.000000 0.000000
LeftFoot 10.114464 9.718572 -19.244208
LeftToeBase -7.248503 -0.000000 0.000000
RightUpLeg 34.454313 19.430981 -15.878139
RightLeg 57.175409 -0.000000 -0.000000
RightFoot 54.947451 10.350572 0.448194
RightToeBase 6.374892 -0.000000 -0.000000
773
root 0.799725 33.987715 -5.995421 -3.578108 48.622514 -113.213817
Spine -49.582885 -11.584699 34.490771
Head -11.789482 31.840748 36.881254
LeftShoulder -25.481033 37.943504 30.308989
LeftArm 78.268970 -69.447112 -72.034429
LeftForeArm 18.167806 -0.000000 15.699737
LeftHand 7.037112 -0.000000 16.704014
LeftHandThumb1 -26.253704 0.000000 33.147579
RightShoulder -23.216701 -4.780945 -28.965794
RightArm -23.042258 36.935729 19.511693
RightForeArm 57.943835 -0.000000 -2.952763
RightHand 2.677603 0.000000 13.682918
RightHandThumb1 -24.326973 -0.000000 -32.862282
LeftUpLeg -101.800926 43.505345 7.390816
LeftLeg -16.951837 -0.000000 0.000000
LeftFoot 10.244039 9.683564 -19.055409
LeftToeBase -7.622134 -0.000000 0.000000
RightUpLeg 34.469603 19.399571 -15.910092
RightLeg 57.188925 -0.000000 -0.000000
RightFoot 54.941679 10.468798 0.537380
RightToeBase 6.674784 -0.000000 -0.000000
